<?xml version="1.0" encoding="utf-8"?>
<!-- Generator: Adobe Illustrator 27.5.0, SVG Export Plug-In . SVG Version: 6.00 Build 0)  -->
<svg version="1.1" xmlns="http://www.w3.org/2000/svg" xmlns:xlink="http://www.w3.org/1999/xlink" x="0px" y="0px"
	 viewBox="0 0 1122 1122" style="enable-background:new 0 0 1122 1122;" xml:space="preserve">
<g id="Bg">
	<g>
		<g>
			<rect style="fill:#FFFFFF;" width="1122" height="1122"/>
		</g>
	</g>
</g>
<g id="Object">
	<g>
		<rect x="246.957" y="500.97" style="fill:#82BFAB;" width="631.963" height="14.417"/>
		<path style="fill:#616E7D;" d="M246.957,846.597c0,11.523,8.532,20.86,19.06,20.86h593.847c10.519,0,19.055-9.337,19.055-20.86
			V515.386H246.957V846.597z M506.421,577.351l172.255,116.773L506.421,810.88V577.351z"/>
		<polygon style="fill:#616E7D;" points="638.768,370.537 688.284,285.792 606.574,301.112 557.038,385.865 		"/>
		<polygon style="fill:#616E7D;" points="467.013,402.724 516.533,317.969 434.818,333.289 385.298,418.039 		"/>
		<path style="fill:#616E7D;" d="M778.303,268.912l-49.51,84.758l81.715-15.312l48.846-83.595c-1.843-0.267-3.779-0.334-5.756,0.044
			L778.303,268.912z"/>
		<path style="fill:#616E7D;" d="M241.139,390.396l6.008,53.536l48.13-9.015l49.536-84.748l-86.853,16.27
			C247.405,368.416,239.872,379.141,241.139,390.396z"/>
		<polygon style="fill:#AAD4C8;" points="385.298,418.039 434.818,333.289 344.813,350.169 295.277,434.917 		"/>
		<polygon style="fill:#AAD4C8;" points="557.038,385.865 606.574,301.112 516.533,317.969 467.013,402.724 		"/>
		<polygon style="fill:#AAD4C8;" points="728.794,353.67 778.303,268.912 688.284,285.792 638.768,370.537 		"/>
		<path style="fill:#AAD4C8;" d="M859.355,254.763l-48.846,83.595L881,325.144l-6.029-53.544
			C873.956,262.455,867.428,255.891,859.355,254.763z"/>
		<polygon style="fill:#616E7D;" points="247.034,500.897 251.627,500.897 295.005,443.932 247.147,443.932 247.034,443.932 		"/>
		<polygon style="fill:#616E7D;" points="422.847,500.897 466.241,443.932 384.757,443.932 341.374,500.897 		"/>
		<polygon style="fill:#616E7D;" points="879.012,469.503 855.081,500.897 879.012,500.897 		"/>
		<polygon style="fill:#616E7D;" points="765.314,500.897 808.712,443.932 727.234,443.932 683.835,500.897 		"/>
		<polygon style="fill:#616E7D;" points="594.099,500.897 637.487,443.932 556.008,443.932 512.604,500.897 		"/>
		<polygon style="fill:#AAD4C8;" points="251.627,500.897 341.374,500.897 384.757,443.932 295.005,443.932 		"/>
		<polygon style="fill:#AAD4C8;" points="512.604,500.897 556.008,443.932 466.241,443.932 422.847,500.897 		"/>
		<polygon style="fill:#AAD4C8;" points="683.835,500.897 727.234,443.932 637.487,443.932 594.099,500.897 		"/>
		<polygon style="fill:#AAD4C8;" points="855.081,500.897 879.012,469.503 879.012,443.932 808.712,443.932 765.314,500.897 		"/>
		<polygon style="fill:#82BFAB;" points="678.676,694.123 506.421,577.351 506.421,810.88 		"/>
	</g>
</g>
</svg>
